<svg xmlns="http://www.w3.org/2000/svg" viewBox="0 0 311.33 242.43">
  <title>advanced-list</title>
  <g id="Layer_2" data-name="Layer 2">
    <g id="Layer_1-2" data-name="Layer 1">
      <g>
        <path d="M2.73,31.7A3.67,3.67,0,0,0,.12,36.18l8.2,31.11a3.67,3.67,0,0,0,4.48,2.61L247.46,8.08a3.67,3.67,0,0,0,2.61-4.48L249.12,0H123.07Z" style="fill: #f59736"/>
        <path d="M254.07,18.8a3.67,3.67,0,0,0-4.48-2.61L14.93,78a3.67,3.67,0,0,0-2.61,4.48l8.2,31.11A3.67,3.67,0,0,0,25,116.21L259.66,54.39a3.67,3.67,0,0,0,2.61-4.48Z" style="fill: #f6a13a"/>
        <path d="M266.36,65.44a3.67,3.67,0,0,0-4.48-2.61L27.22,124.65a3.67,3.67,0,0,0-2.61,4.48l8.2,31.11a3.67,3.67,0,0,0,4.48,2.61L271.95,101a3.67,3.67,0,0,0,2.61-4.48Z" style="fill: #f7aa3f"/>
        <path d="M36.9,175.77l8.2,31.11a3.67,3.67,0,0,0,4.48,2.61l234.66-61.82a3.67,3.67,0,0,0,2.61-4.48l-8.2-31.11a3.67,3.67,0,0,0-4.48-2.61L39.51,171.29A3.67,3.67,0,0,0,36.9,175.77Z" style="fill: #f7b344"/>
        <path d="M296.42,193.91a3.67,3.67,0,0,0,2.61-4.48l-8.2-31.11a3.67,3.67,0,0,0-4.48-2.61L51.69,217.53A3.67,3.67,0,0,0,49.08,222l5.38,20.42h57.79Z" style="fill: #f9bd49"/>
        <path d="M303,204.56a3.67,3.67,0,0,0-4.48-2.61L144.89,242.43H300l8.63-2.27a3.67,3.67,0,0,0,2.61-4.48Z" style="fill: #f9c64e"/>
      </g>
    </g>
  </g>
</svg>
