<svg xmlns="http://www.w3.org/2000/svg" viewBox="0 0 1154.28 315.93">
  <title>logo</title>
  <g id="Layer_2" data-name="Layer 2">
    <g id="Layer_1-2" data-name="Layer 1">
      <g>
        <g>
          <g>
            <g style="opacity: 0.15">
              <path d="M57.88,80.5q1.82-3.53,3.81-7t4.14-6.8c-4.28.53-8.39,1.24-12.24,2.1C54.77,72.6,56.2,76.51,57.88,80.5Z" style="fill: #f59636"/>
              <path d="M89.79,128.46q1.7,1.64,3.39,3.09c7.66,6.59,14.88,10,19.71,10a6.83,6.83,0,0,0,3.45-.81c.09-.05.17-.12.25-.18a91.46,91.46,0,0,1-12.88-26.74c-.87.09-1.73.19-2.62.27A135.5,135.5,0,0,1,89.79,128.46Z" style="fill: #f59636"/>
              <path d="M77.58,59.94q4-.19,7.94-.19t8,.19a123.29,123.29,0,0,0-7.94-9.59C82.89,53.26,80.2,56.48,77.58,59.94Z" style="fill: #f59636"/>
              <path d="M79.52,44.36C71.19,37,63.2,33.09,58,33.09a6.92,6.92,0,0,0-3.5.81c-4.24,2.45-5.92,12.23-3.39,25.2h0q.41,2.09.93,4.16a140.92,140.92,0,0,1,18-2.8,138.19,138.19,0,0,1,11.5-14.23C80.87,45.58,80.19,45,79.52,44.36Z" style="fill: #f59636"/>
              <path d="M85.52,65.52c-4.16,0-8.28.16-12.29.46q-3.47,5.08-6.54,10.42h0q-3.07,5.33-5.74,10.88,2.67,5.55,5.76,10.88t6.6,10.46c3.93.26,8,.39,12.22.39s8.36-.15,12.36-.43q1.74-2.62,3.39-5.29a93.62,93.62,0,0,1,.1-31.84Q99.66,68.68,97.84,66C93.83,65.68,89.7,65.52,85.52,65.52Zm0,33.68A12.05,12.05,0,1,1,97.58,87.14,12.05,12.05,0,0,1,85.52,99.19Z" style="fill: #f59636"/>
              <path d="M48,70.23q-2.34.66-4.65,1.46C31.13,76,23.8,82.22,23.8,87.14c0,2.31,1.69,5.16,5,8,3.73,3.19,9.16,6.11,15.74,8.36q1.65.56,3.33,1a140.39,140.39,0,0,1,6.66-17.29A138.3,138.3,0,0,1,48,70.23Z" style="fill: #f59636"/>
              <path d="M93.67,114.59q-4,.18-8.15.18t-7.9-.15c2.66,3.51,5.39,6.77,8.12,9.72A122.64,122.64,0,0,0,93.67,114.59Z" style="fill: #f59636"/>
              <path d="M120,145.18c-.27.19-.53.39-.81.55a12.41,12.41,0,0,1-6.31,1.57c-6.63,0-15-4.08-23.5-11.37q-1.87-1.61-3.65-3.33Q84.36,134,83,135.2c-8.81,7.7-17.8,12.05-24.81,12.05a12.73,12.73,0,0,1-6.44-1.58c-7-4-9.22-15.85-6.4-30.72q.46-2.42,1.06-4.82-1.84-.52-3.65-1.14C27.83,103.9,18,95.5,18,87.14c0-8.1,9.13-15.91,23.42-20.89,1.6-.56,3.27-1.08,5-1.57q-.56-2.22-1-4.47c-3-15.13-.88-27.22,6.16-31.3A12.48,12.48,0,0,1,58,27.34c7.1,0,16.26,4.59,25.4,12.71q1.14,1,2.24,2.07,1.64-1.58,3.36-3.08c8.67-7.55,17.29-11.82,24-11.82a12.17,12.17,0,0,1,6.16,1.53,10.91,10.91,0,0,1,1.32.9,93.5,93.5,0,0,1,6.6-7.36q3.13-3.13,6.5-5.92a85.53,85.53,0,1,0-.7,142c-2-1.69-3.94-3.45-5.8-5.31A93.4,93.4,0,0,1,120,145.18Z" style="fill: #f59636"/>
              <path d="M51,116c-2.41,12.71-.64,22.2,3.61,24.65a7.11,7.11,0,0,0,3.56.81,18.11,18.11,0,0,0,5.9-1.17h0c4.62-1.63,9.87-4.88,15.11-9.46q1.31-1.15,2.57-2.37a140.3,140.3,0,0,1-11.59-14.32A135.59,135.59,0,0,1,52,111.54Q51.4,113.76,51,116Z" style="fill: #f59636"/>
              <path d="M53.51,106A122.77,122.77,0,0,0,66,108q-2.2-3.41-4.24-6.93t-3.83-7C56.17,98.13,54.71,102.13,53.51,106Z" style="fill: #f59636"/>
              <path d="M113,27.21c-6.74,0-15.35,4.27-24,11.82q-1.72,1.5-3.36,3.08-1.1-1.05-2.24-2.07C74.21,31.93,65.05,27.34,58,27.34a12.48,12.48,0,0,0-6.34,1.57c-7,4.07-9.12,16.16-6.16,31.3q.44,2.25,1,4.47c-1.73.49-3.4,1-5,1.57C27.16,71.23,18,79,18,87.14c0,8.37,9.8,16.76,24.68,21.84q1.81.62,3.65,1.14-.6,2.39-1.06,4.82c-2.82,14.87-.62,26.67,6.4,30.72a12.73,12.73,0,0,0,6.44,1.58c7,0,16-4.35,24.81-12.05q1.4-1.23,2.82-2.6,1.78,1.72,3.65,3.33c8.47,7.29,16.87,11.37,23.5,11.37a12.41,12.41,0,0,0,6.31-1.57c.28-.16.54-.36.81-.55q-1.8-2.26-3.45-4.62c-.09.06-.17.13-.25.18a6.83,6.83,0,0,1-3.45.81c-4.82,0-12-3.4-19.71-10q-1.69-1.45-3.39-3.09A135.5,135.5,0,0,0,101.1,114.1c.89-.08,1.75-.18,2.62-.27a91.34,91.34,0,0,1-2.44-10.54q-1.65,2.67-3.39,5.29c-4,.29-8.14.43-12.36.43s-8.29-.13-12.22-.39q-3.5-5.11-6.6-10.46T60.95,87.28q2.66-5.55,5.74-10.88h0Q69.76,71.07,73.23,66c4-.3,8.13-.46,12.29-.46s8.3.16,12.31.47q1.82,2.7,3.54,5.46a91.33,91.33,0,0,1,2.56-10.66c-1-.11-1.92-.22-2.9-.32A135.46,135.46,0,0,0,89.63,46.23q1.52-1.46,3.1-2.85C100.6,36.54,108.06,33,112.94,33a6.58,6.58,0,0,1,3.32.77,5.37,5.37,0,0,1,.72.51c1.11-1.57,2.27-3.11,3.48-4.61a10.91,10.91,0,0,0-1.32-.9A12.17,12.17,0,0,0,113,27.21ZM47.91,104.57q-1.68-.48-3.33-1c-6.58-2.25-12-5.17-15.74-8.36-3.35-2.87-5-5.71-5-8,0-4.91,7.33-11.18,19.55-15.45q2.3-.8,4.65-1.46a138.3,138.3,0,0,0,6.58,17A140.39,140.39,0,0,0,47.91,104.57Zm37.61,10.2q4.13,0,8.15-.18a122.64,122.64,0,0,1-7.92,9.75c-2.73-2.95-5.46-6.21-8.12-9.72Q81.5,114.77,85.52,114.77Zm-15.38-.6a140.3,140.3,0,0,0,11.59,14.32q-1.26,1.22-2.57,2.37c-5.24,4.58-10.49,7.83-15.11,9.46h0a18.11,18.11,0,0,1-5.9,1.17,7.11,7.11,0,0,1-3.56-.81c-4.26-2.46-6-11.94-3.61-24.65q.43-2.25,1-4.48A135.59,135.59,0,0,0,70.15,114.17ZM61.72,101q2,3.52,4.24,6.93a122.77,122.77,0,0,1-12.44-2c1.19-3.85,2.66-7.85,4.38-11.92Q59.72,97.59,61.72,101Zm0-27.53q-2,3.45-3.81,7c-1.68-4-3.12-7.9-4.29-11.68,3.85-.86,8-1.57,12.24-2.1Q63.68,70.07,61.69,73.52ZM70,60.46a140.92,140.92,0,0,0-18,2.8q-.52-2.07-.93-4.16h0c-2.54-13-.85-22.74,3.39-25.2a6.92,6.92,0,0,1,3.5-.81c5.21,0,13.2,3.88,21.53,11.27.67.6,1.35,1.22,2,1.87A138.19,138.19,0,0,0,70,60.46Zm23.48-.52q-4-.19-8-.19t-7.94.19c2.62-3.46,5.31-6.67,8-9.59A123.29,123.29,0,0,1,93.53,59.94Z" style="fill: #fff"/>
              <circle cx="85.52" cy="87.14" r="12.05" style="fill: #fff"/>
              <path d="M112.94,33c-4.88,0-12.34,3.58-20.21,10.42q-1.59,1.38-3.1,2.85A135.46,135.46,0,0,1,101,60.47c1,.09,1.93.21,2.9.32a91.52,91.52,0,0,1,13-26.54,5.37,5.37,0,0,0-.72-.51A6.58,6.58,0,0,0,112.94,33Z" style="fill: #f59636"/>
            </g>
            <g style="opacity: 0.5">
              <path d="M186.44,44.89c-8.33-7.4-16.32-11.27-21.53-11.27a6.92,6.92,0,0,0-3.5.81c-4.24,2.45-5.92,12.23-3.39,25.2h0q.41,2.09.93,4.16A140.88,140.88,0,0,1,177,61a138.17,138.17,0,0,1,11.5-14.23C187.78,46.12,187.11,45.49,186.44,44.89Z" style="fill: #f59636"/>
              <path d="M184.49,60.47q4-.19,7.94-.19t8,.19a123.31,123.31,0,0,0-7.94-9.59C189.8,53.8,187.12,57,184.49,60.47Z" style="fill: #f59636"/>
              <path d="M200.59,115.12q-4,.18-8.15.18t-7.9-.15c2.66,3.51,5.39,6.77,8.12,9.72A122.64,122.64,0,0,0,200.59,115.12Z" style="fill: #f59636"/>
              <path d="M228.59,144.35a11.36,11.36,0,0,1-2.44,1.92,12.41,12.41,0,0,1-6.31,1.57c-6.63,0-15-4.08-23.5-11.37q-1.87-1.61-3.65-3.33-1.41,1.36-2.82,2.6c-8.81,7.7-17.8,12.05-24.81,12.05a12.73,12.73,0,0,1-6.44-1.58c-7-4-9.22-15.85-6.4-30.72q.46-2.42,1.06-4.82-1.84-.52-3.65-1.14c-14.89-5.09-24.68-13.48-24.68-21.84,0-8.1,9.13-15.91,23.42-20.89,1.6-.56,3.27-1.08,5-1.57q-.56-2.22-1-4.47c-3-15.13-.88-27.22,6.16-31.3a12.49,12.49,0,0,1,6.34-1.57c7.1,0,16.26,4.59,25.4,12.71q1.14,1,2.24,2.07,1.64-1.58,3.36-3.08c8.67-7.55,17.29-11.82,24-11.82a12.17,12.17,0,0,1,6.16,1.53c.11.07.22.15.33.22A93.27,93.27,0,0,1,239,16a85.53,85.53,0,1,0,2.81,141.5A93.3,93.3,0,0,1,228.59,144.35Z" style="fill: #f59636"/>
              <path d="M199.65,43.91q-1.59,1.38-3.1,2.85A135.48,135.48,0,0,1,208,61c.91.09,1.79.19,2.69.29A92.08,92.08,0,0,1,223,34.19a6.69,6.69,0,0,0-3.16-.69C215,33.49,207.51,37.07,199.65,43.91Z" style="fill: #f59636"/>
              <path d="M192.44,66.05c-4.16,0-8.28.16-12.29.46q-3.47,5.08-6.54,10.42h0q-3.07,5.33-5.74,10.88,2.67,5.55,5.76,10.88t6.6,10.46c3.93.26,8,.39,12.22.39s8.36-.15,12.36-.43c1.45-2.17,2.83-4.38,4.18-6.61a92.68,92.68,0,0,1-.59-30.36q-1.77-2.84-3.63-5.62C200.74,66.21,196.62,66.05,192.44,66.05Zm0,33.68a12.05,12.05,0,1,1,12.05-12.05A12.05,12.05,0,0,1,192.44,99.73Z" style="fill: #f59636"/>
              <path d="M196.7,129q1.7,1.64,3.39,3.09c7.66,6.59,14.88,10,19.71,10a6.83,6.83,0,0,0,3.45-.81,6.21,6.21,0,0,0,1.73-1.58,92.27,92.27,0,0,1-13-25.47c-1.31.15-2.62.29-4,.41A135.49,135.49,0,0,1,196.7,129Z" style="fill: #f59636"/>
              <path d="M161.49,87.81a138.3,138.3,0,0,1-6.58-17q-2.34.66-4.65,1.46C138,76.49,130.72,82.76,130.72,87.67c0,2.31,1.69,5.16,5,8,3.73,3.19,9.16,6.11,15.74,8.36q1.65.56,3.33,1A140.39,140.39,0,0,1,161.49,87.81Z" style="fill: #f59636"/>
              <path d="M158.87,112.07q-.55,2.23-1,4.48c-2.41,12.71-.64,22.2,3.61,24.65a7.11,7.11,0,0,0,3.56.81,18.11,18.11,0,0,0,5.9-1.17h0c4.62-1.63,9.87-4.88,15.11-9.46q1.31-1.15,2.57-2.37a140.3,140.3,0,0,1-11.59-14.32A135.59,135.59,0,0,1,158.87,112.07Z" style="fill: #f59636"/>
              <path d="M160.51,69.35c1.17,3.78,2.61,7.7,4.29,11.68q1.82-3.53,3.81-7t4.14-6.8C168.47,67.78,164.36,68.49,160.51,69.35Z" style="fill: #f59636"/>
              <path d="M160.43,106.51a122.83,122.83,0,0,0,12.44,2q-2.2-3.41-4.24-6.93t-3.83-7C163.09,98.66,161.62,102.66,160.43,106.51Z" style="fill: #f59636"/>
              <path d="M219.89,27.74c-6.74,0-15.35,4.27-24,11.82q-1.72,1.5-3.36,3.08-1.1-1.05-2.24-2.07c-9.14-8.12-18.3-12.71-25.4-12.71a12.49,12.49,0,0,0-6.34,1.57c-7,4.07-9.12,16.16-6.16,31.3q.44,2.25,1,4.47c-1.73.49-3.4,1-5,1.57-14.29,5-23.42,12.79-23.42,20.89,0,8.37,9.8,16.76,24.68,21.84q1.81.62,3.65,1.14-.6,2.39-1.06,4.82c-2.82,14.87-.62,26.67,6.4,30.72a12.73,12.73,0,0,0,6.44,1.58c7,0,16-4.35,24.81-12.05q1.4-1.23,2.82-2.6,1.78,1.72,3.65,3.33c8.47,7.29,16.87,11.37,23.5,11.37a12.41,12.41,0,0,0,6.31-1.57,11.36,11.36,0,0,0,2.44-1.92q-1.87-2.27-3.6-4.66a6.21,6.21,0,0,1-1.73,1.58,6.83,6.83,0,0,1-3.45.81c-4.82,0-12-3.4-19.71-10q-1.69-1.45-3.39-3.09A135.49,135.49,0,0,0,208,114.63c1.34-.12,2.65-.26,4-.41a91.65,91.65,0,0,1-3-11.72c-1.35,2.23-2.74,4.44-4.18,6.61-4,.29-8.14.43-12.36.43s-8.29-.13-12.22-.39q-3.5-5.11-6.6-10.46t-5.76-10.88q2.66-5.55,5.74-10.88h0q3.07-5.33,6.54-10.42c4-.3,8.13-.46,12.29-.46s8.3.16,12.31.47q1.88,2.77,3.63,5.62a91.76,91.76,0,0,1,2.25-10.84c-.89-.1-1.78-.21-2.69-.29a135.48,135.48,0,0,0-11.41-14.24q1.52-1.46,3.1-2.85c7.86-6.84,15.32-10.42,20.21-10.42a6.69,6.69,0,0,1,3.16.69q1.61-2.4,3.37-4.7c-.11-.07-.21-.16-.33-.22A12.17,12.17,0,0,0,219.89,27.74ZM151.5,104.06c-6.58-2.25-12-5.17-15.74-8.36-3.35-2.87-5-5.71-5-8,0-4.91,7.33-11.18,19.55-15.45q2.3-.8,4.65-1.46a138.3,138.3,0,0,0,6.58,17,140.39,140.39,0,0,0-6.66,17.29Q153.15,104.62,151.5,104.06Zm40.94,11.24q4.13,0,8.15-.18a122.64,122.64,0,0,1-7.92,9.75c-2.73-2.95-5.46-6.21-8.12-9.72Q188.42,115.3,192.44,115.3Zm-15.38-.6A140.3,140.3,0,0,0,188.65,129q-1.26,1.22-2.57,2.37c-5.24,4.58-10.49,7.83-15.11,9.46h0a18.11,18.11,0,0,1-5.9,1.17,7.11,7.11,0,0,1-3.56-.81c-4.26-2.46-6-11.94-3.61-24.65q.43-2.25,1-4.48A135.59,135.59,0,0,0,177.06,114.7Zm-8.43-13.13q2,3.52,4.24,6.93a122.83,122.83,0,0,1-12.44-2c1.19-3.85,2.66-7.85,4.38-11.92Q166.63,98.13,168.63,101.58Zm0-27.53q-2,3.45-3.81,7c-1.68-4-3.12-7.9-4.29-11.68,3.85-.86,8-1.57,12.24-2.1Q170.6,70.6,168.61,74.05ZM177,61a140.88,140.88,0,0,0-18,2.8q-.52-2.07-.93-4.16h0c-2.54-13-.85-22.74,3.39-25.2a6.92,6.92,0,0,1,3.5-.81c5.21,0,13.2,3.88,21.53,11.27.67.6,1.35,1.22,2,1.87A138.17,138.17,0,0,0,177,61Zm23.48-.52q-4-.19-8-.19t-7.94.19c2.62-3.46,5.31-6.67,8-9.59A123.31,123.31,0,0,1,200.45,60.47Z" style="fill: #fff"/>
              <circle cx="192.44" cy="87.67" r="12.05" style="fill: #fff"/>
            </g>
            <g>
              <path d="M334.48,112.94q-.32-1.6-.73-3.27a134.63,134.63,0,0,1-18.28,2.82,135.51,135.51,0,0,1-11.31,14.37q1.7,1.64,3.39,3.09c7.66,6.59,14.88,10,19.71,10a6.83,6.83,0,0,0,3.45-.81c2-1.16,3.62-4,4.42-8.38.89-4.82.7-11-.65-17.81Z" style="fill: #f59636"/>
              <path d="M319.58,106.27a122.38,122.38,0,0,0,12.59-2.15,122.46,122.46,0,0,0-4.53-11.87h0q-1.88,3.62-3.91,7.15T319.58,106.27Z" style="fill: #f59636"/>
              <path d="M337.76,102.66c.77-.23,1.53-.46,2.27-.71h0c13.36-4.43,21.59-11.2,21.59-16.42,0-4.9-7.62-11.26-20.11-15.56q-1.94-.67-4-1.27a135.29,135.29,0,0,1-6.57,16.85A135.34,135.34,0,0,1,337.76,102.66Z" style="fill: #f59636"/>
              <path d="M299.89,113.17q-4,0-7.9-.15c2.66,3.51,5.39,6.77,8.12,9.72A122.63,122.63,0,0,0,308,113Q304,113.16,299.89,113.17Z" style="fill: #f59636"/>
              <path d="M319.59,65.12q2.12,3.33,4.1,6.75t3.88,7a123,123,0,0,0,4.32-11.62C328,66.39,323.9,65.67,319.59,65.12Z" style="fill: #f59636"/>
              <path d="M266.32,109.93q-.55,2.23-1,4.48c-2.41,12.72-.64,22.2,3.61,24.65a7.11,7.11,0,0,0,3.56.81,18.11,18.11,0,0,0,5.9-1.17h0c4.62-1.63,9.87-4.88,15.11-9.46q1.31-1.15,2.57-2.37a140.31,140.31,0,0,1-11.59-14.32A135.61,135.61,0,0,1,266.32,109.93Z" style="fill: #f59636"/>
              <path d="M333.45,61.71q.33-1.34.61-2.68c2.84-13.79,1.08-24.3-3.44-26.9a6.58,6.58,0,0,0-3.32-.77c-4.88,0-12.34,3.58-20.21,10.42q-1.59,1.38-3.1,2.85A135.45,135.45,0,0,1,315.4,58.86,138.14,138.14,0,0,1,333.45,61.71Z" style="fill: #f59636"/>
              <path d="M299.89,171.05a85.53,85.53,0,1,0-85.52-85.53A85.52,85.52,0,0,0,299.89,171.05ZM272.32,25.73c7.1,0,16.26,4.59,25.4,12.71q1.14,1,2.24,2.07,1.64-1.58,3.36-3.08c8.67-7.55,17.29-11.82,24-11.82a12.17,12.17,0,0,1,6.16,1.53c7.34,4.23,9.49,17.1,6.21,33.06q-.31,1.49-.67,3,2.19.63,4.35,1.37c14.58,5,24,12.88,24,21,0,8.48-10.07,16.77-25.54,21.89q-1.23.41-2.51.78.46,1.84.81,3.61c3.05,15.43.7,28.11-6.54,32.3a12.41,12.41,0,0,1-6.31,1.57c-6.63,0-15-4.08-23.5-11.37q-1.87-1.61-3.65-3.33-1.41,1.36-2.82,2.6c-8.81,7.7-17.8,12.05-24.81,12.05a12.73,12.73,0,0,1-6.44-1.58c-7-4-9.22-15.85-6.4-30.72q.46-2.42,1.06-4.82-1.84-.52-3.65-1.14C242.2,102.29,232.4,93.9,232.4,85.54c0-8.1,9.13-15.91,23.42-20.89,1.6-.56,3.27-1.08,5-1.57q-.56-2.22-1-4.47c-3-15.13-.88-27.22,6.16-31.3A12.48,12.48,0,0,1,272.32,25.73Z" style="fill: #f59636"/>
              <path d="M299.88,58.15q4,0,8,.19A123.31,123.31,0,0,0,300,48.75c-2.7,2.91-5.39,6.13-8,9.59Q295.91,58.15,299.88,58.15Z" style="fill: #f59636"/>
              <path d="M265.47,57.5h0q.41,2.09.93,4.16a140.9,140.9,0,0,1,18-2.8,138.2,138.2,0,0,1,11.5-14.23c-.68-.65-1.35-1.27-2-1.87-8.33-7.4-16.32-11.27-21.53-11.27a6.92,6.92,0,0,0-3.5.81C264.62,34.75,262.94,44.53,265.47,57.5Z" style="fill: #f59636"/>
              <path d="M275.31,85.67q2.67,5.55,5.76,10.88t6.6,10.46c3.93.26,8,.39,12.22.39s8.36-.15,12.36-.43q3.41-5.12,6.48-10.45h0q3.09-5.36,5.8-10.93-2.73-5.51-5.82-10.83t-6.5-10.38c-4-.31-8.13-.47-12.31-.47s-8.28.16-12.29.46q-3.47,5.08-6.54,10.42h0Q278,80.12,275.31,85.67Zm24.58-12.19a12.05,12.05,0,1,1-12.05,12.05A12.05,12.05,0,0,1,299.89,73.48Z" style="fill: #f59636"/>
              <path d="M268.94,85.68a138.29,138.29,0,0,1-6.58-17q-2.34.66-4.65,1.46c-12.22,4.26-19.55,10.53-19.55,15.45,0,2.31,1.69,5.16,5,8,3.73,3.19,9.16,6.11,15.74,8.36q1.65.56,3.33,1A140.38,140.38,0,0,1,268.94,85.68Z" style="fill: #f59636"/>
              <path d="M272.25,92.45c-1.72,4.07-3.18,8.07-4.38,11.92a122.76,122.76,0,0,0,12.44,2q-2.2-3.41-4.24-6.93T272.25,92.45Z" style="fill: #f59636"/>
              <path d="M268,67.21c1.17,3.78,2.61,7.7,4.29,11.68q1.82-3.53,3.81-7t4.14-6.8C275.92,65.65,271.81,66.35,268,67.21Z" style="fill: #f59636"/>
              <path d="M259.81,58.6q.44,2.25,1,4.47c-1.73.49-3.4,1-5,1.57-14.29,5-23.42,12.79-23.42,20.89,0,8.37,9.8,16.76,24.68,21.84q1.81.62,3.65,1.14-.6,2.39-1.06,4.82c-2.82,14.87-.62,26.67,6.4,30.72a12.73,12.73,0,0,0,6.44,1.58c7,0,16-4.35,24.81-12.05q1.4-1.23,2.82-2.6,1.78,1.71,3.65,3.33c8.47,7.29,16.87,11.37,23.5,11.37a12.41,12.41,0,0,0,6.31-1.57c7.24-4.19,9.59-16.87,6.54-32.3q-.35-1.77-.81-3.61,1.28-.38,2.51-.78c15.47-5.13,25.54-13.42,25.54-21.89,0-8.13-9.42-16-24-21q-2.15-.74-4.35-1.37.36-1.48.67-3c3.29-16,1.14-28.83-6.21-33.06a12.17,12.17,0,0,0-6.16-1.53c-6.74,0-15.35,4.27-24,11.82q-1.72,1.5-3.36,3.08-1.1-1.05-2.24-2.07c-9.14-8.12-18.3-12.71-25.4-12.71A12.48,12.48,0,0,0,266,27.31C258.94,31.38,256.85,43.47,259.81,58.6Zm-.87,43.32c-6.58-2.25-12-5.17-15.74-8.36-3.35-2.87-5-5.71-5-8,0-4.91,7.33-11.18,19.55-15.45q2.3-.8,4.65-1.46a138.29,138.29,0,0,0,6.58,17A140.38,140.38,0,0,0,262.28,103Q260.6,102.49,258.95,101.92ZM287.6,64.37c4-.3,8.13-.46,12.29-.46s8.3.16,12.31.47q3.43,5.08,6.5,10.38t5.82,10.83q-2.7,5.56-5.8,10.93h0q-3.07,5.33-6.48,10.45c-4,.29-8.14.43-12.36.43s-8.29-.13-12.22-.39q-3.5-5.11-6.6-10.46t-5.76-10.88q2.67-5.55,5.74-10.88h0Q284.13,69.46,287.6,64.37Zm40,14.52q-1.87-3.55-3.88-7t-4.1-6.75c4.31.54,8.43,1.27,12.31,2.15A123,123,0,0,1,327.58,78.9Zm.05,13.35a122.46,122.46,0,0,1,4.53,11.87,122.38,122.38,0,0,1-12.59,2.15q2.14-3.39,4.14-6.87t3.91-7.15Zm-47.32,14.12a122.76,122.76,0,0,1-12.44-2c1.19-3.85,2.66-7.85,4.38-11.92q1.83,3.54,3.83,7T280.32,106.37Zm-4.26-34.46q-2,3.45-3.81,7c-1.68-4-3.12-7.9-4.29-11.68,3.85-.86,8-1.57,12.24-2.1Q278,68.46,276.06,71.91Zm17.47,57.34c-5.24,4.58-10.49,7.83-15.11,9.46h0a18.11,18.11,0,0,1-5.9,1.17,7.11,7.11,0,0,1-3.56-.81c-4.26-2.46-6-11.94-3.61-24.65q.43-2.25,1-4.48a135.61,135.61,0,0,0,18.19,2.63,140.31,140.31,0,0,0,11.59,14.32Q294.84,128.1,293.53,129.25Zm6.59-6.52c-2.73-2.95-5.46-6.21-8.12-9.72q3.88.15,7.9.15T308,113A122.63,122.63,0,0,1,300.11,122.73Zm35,8c-.8,4.33-2.42,7.22-4.42,8.38a6.83,6.83,0,0,1-3.45.81c-4.82,0-12-3.4-19.71-10q-1.69-1.45-3.39-3.09a135.51,135.51,0,0,0,11.31-14.37,134.63,134.63,0,0,0,18.28-2.82q.41,1.67.73,3.27h0C335.83,119.76,336,125.93,335.13,130.75Zm2.36-62q2.07.6,4,1.27c12.49,4.3,20.11,10.66,20.11,15.56,0,5.22-8.23,12-21.59,16.42h0c-.74.24-1.5.48-2.27.71a135.34,135.34,0,0,0-6.84-17.1A135.29,135.29,0,0,0,337.49,68.71ZM307.1,41.78c7.86-6.84,15.32-10.42,20.21-10.42a6.58,6.58,0,0,1,3.32.77c4.52,2.61,6.28,13.12,3.44,26.9q-.28,1.35-.61,2.68a138.14,138.14,0,0,0-18-2.85A135.45,135.45,0,0,0,304,44.62Q305.51,43.16,307.1,41.78Zm-7.14,7a123.31,123.31,0,0,1,7.94,9.59q-4-.19-8-.19t-7.94.19C294.57,54.87,297.25,51.66,300,48.75ZM268.86,32.3a6.92,6.92,0,0,1,3.5-.81c5.21,0,13.2,3.88,21.53,11.27.67.6,1.35,1.22,2,1.87a138.2,138.2,0,0,0-11.5,14.23,140.9,140.9,0,0,0-18,2.8q-.52-2.07-.93-4.16h0C262.94,44.53,264.62,34.75,268.86,32.3Z" style="fill: #fff"/>
              <circle cx="299.89" cy="85.54" r="12.05" style="fill: #fff"/>
            </g>
          </g>
          <g>
            <path d="M426.78,10a1.58,1.58,0,0,1,.36-1.09,1.35,1.35,0,0,1,1.07-.41h20.95a15.74,15.74,0,0,1,6.26,1.25,16.36,16.36,0,0,1,5.09,3.39,15.84,15.84,0,0,1,3.42,5,15.16,15.16,0,0,1,1.25,6.11,14.51,14.51,0,0,1-.6,4.2,15.65,15.65,0,0,1-1.67,3.73,15.84,15.84,0,0,1-2.55,3.15,16.65,16.65,0,0,1-3.23,2.42l8.33,15.7q.23.45.58,1.07a2.22,2.22,0,0,1,.36,1.07,1,1,0,0,1-.34.79,1.43,1.43,0,0,1-.92.28H454a1.62,1.62,0,0,1-1-.32,1.47,1.47,0,0,1-.57-.88L444.58,40.6h-5.25V55.23q0,1.39-1.49,1.39h-9.63a1.52,1.52,0,0,1-1-.34,1.33,1.33,0,0,1-.39-1.05Zm25.39,14.4a5.61,5.61,0,0,0-.36-1.95,6.33,6.33,0,0,0-1-1.78,5.93,5.93,0,0,0-1.56-1.36,5.34,5.34,0,0,0-2-.71l-1.7-.11q-.8,0-1.74,0h-4.47v11.9h6c.39,0,.73,0,1,0l1-.1a5.14,5.14,0,0,0,2-.67,5.3,5.3,0,0,0,1.52-1.33,5.86,5.86,0,0,0,.94-1.78A6.5,6.5,0,0,0,452.17,24.36Z" style="fill: #f59636"/>
            <path d="M503.51,51.7a21.61,21.61,0,0,1-6.42,4.1,19.57,19.57,0,0,1-7.55,1.48,22.05,22.05,0,0,1-15.34-6.11,21.55,21.55,0,0,1-4.74-6.76,20.39,20.39,0,0,1-1.75-8.46,21.94,21.94,0,0,1,2.67-10.54,21.27,21.27,0,0,1,3.11-4.3,19.7,19.7,0,0,1,4.1-3.36,20.18,20.18,0,0,1,4.93-2.17,19.88,19.88,0,0,1,5.61-.78,19.19,19.19,0,0,1,5.22.71,20.38,20.38,0,0,1,4.75,2,20.66,20.66,0,0,1,4.07,3.11,21,21,0,0,1,3.18,4,19.15,19.15,0,0,1,2.06,4.6,17.57,17.57,0,0,1,.73,5q0,1.69,0,2.76a3.12,3.12,0,0,1-.5,1.7,2.45,2.45,0,0,1-1.51.88,14.76,14.76,0,0,1-3.1.24H479.64A8,8,0,0,0,481,43.3a8.26,8.26,0,0,0,2.29,2.22A9.12,9.12,0,0,0,486,46.7a11.59,11.59,0,0,0,2.76.36,12.39,12.39,0,0,0,2.4-.24,17.18,17.18,0,0,0,2.38-.65,13.48,13.48,0,0,0,2.11-.94,7,7,0,0,0,1.54-1.12,6.79,6.79,0,0,1,.89-.63,1.59,1.59,0,0,1,.79-.21,1.55,1.55,0,0,1,.86.29,6.75,6.75,0,0,1,1,.84l3.44,3.89a2.18,2.18,0,0,1,.45.76,2.55,2.55,0,0,1,.1.7,1.8,1.8,0,0,1-.36,1.12A4.07,4.07,0,0,1,503.51,51.7Zm-15.6-27a6.22,6.22,0,0,0-2.45.5,9.25,9.25,0,0,0-2.22,1.35,11.46,11.46,0,0,0-1.87,1.91A11.72,11.72,0,0,0,480,30.62H496.6a19,19,0,0,0-1.47-2.33,10,10,0,0,0-1.82-1.88A7.86,7.86,0,0,0,491,25.14,9.38,9.38,0,0,0,487.91,24.68Z" style="fill: #f59636"/>
            <path d="M557.3,54.22a2.87,2.87,0,0,1-.2,1.05,2.55,2.55,0,0,1-1.49,1.25,4.34,4.34,0,0,1-.84.1h-6.39a2.86,2.86,0,0,1-1.1-.18,1.69,1.69,0,0,1-.68-.5,2.87,2.87,0,0,1-.44-.79q-.18-.47-.37-1l-.94-2.43q-.87.87-1.91,1.86a17.45,17.45,0,0,1-2.29,1.83,13.63,13.63,0,0,1-2.71,1.41,8.52,8.52,0,0,1-3.11.57,21.21,21.21,0,0,1-5.66-.75,20.81,20.81,0,0,1-9.32-5.43,21.15,21.15,0,0,1-5.42-9.4,21.7,21.7,0,0,1-.75-5.72,21.13,21.13,0,0,1,1.65-8.38,21.35,21.35,0,0,1,4.51-6.75,21,21,0,0,1,15-6.14,11,11,0,0,1,3.7.6A12.68,12.68,0,0,1,541.59,17a15.24,15.24,0,0,1,2.5,2.21,24.08,24.08,0,0,1,2,2.5l1.27-3.92q.32-.81.54-1.31a2.32,2.32,0,0,1,.45-.75,1.21,1.21,0,0,1,.6-.32,4.83,4.83,0,0,1,1-.08h4.83a4.34,4.34,0,0,1,.84.1,1.62,1.62,0,0,1,.84.45,2.07,2.07,0,0,1,.65.81,2.59,2.59,0,0,1,.2,1ZM525.36,36.06a11.84,11.84,0,0,0,.66,4,9.51,9.51,0,0,0,1.9,3.23,9,9,0,0,0,3,2.16,9.11,9.11,0,0,0,3.84.79,10.18,10.18,0,0,0,4-.79A10.3,10.3,0,0,0,542,43.3a9.79,9.79,0,0,0,2.16-3.23,10.58,10.58,0,0,0,0-8A10.49,10.49,0,0,0,542,28.8a10.23,10.23,0,0,0-3.24-2.25,9.85,9.85,0,0,0-4-.83,8.82,8.82,0,0,0-3.84.83,9,9,0,0,0-3,2.25,10.22,10.22,0,0,0-1.9,3.31A11.78,11.78,0,0,0,525.36,36.06Z" style="fill: #f59636"/>
            <path d="M591.45,43.94a2.29,2.29,0,0,1,.86-.41,3.47,3.47,0,0,1,.63-.08,2.22,2.22,0,0,1,1,.23,2.71,2.71,0,0,1,.94,1l3.63,5.48a4.76,4.76,0,0,1,.31.58,1.36,1.36,0,0,1,.15.52,1.65,1.65,0,0,1-.47,1.22,6.26,6.26,0,0,1-1,.83,24.41,24.41,0,0,1-5.82,3,19.92,19.92,0,0,1-6.7,1.12,21.09,21.09,0,0,1-5.62-.75,20.65,20.65,0,0,1-5-2.12A21.82,21.82,0,0,1,570,51.19a20.25,20.25,0,0,1-3.31-4.3,22,22,0,0,1-2.12-5.11,21.94,21.94,0,0,1,0-11.46,21.62,21.62,0,0,1,2.13-5.11A20.46,20.46,0,0,1,570,20.94a21.37,21.37,0,0,1,4.28-3.29A21.16,21.16,0,0,1,585,14.79a21.75,21.75,0,0,1,6.54.94,20.26,20.26,0,0,1,5.63,2.79l-.1-.1a3.81,3.81,0,0,1,1.13,1,2.3,2.3,0,0,1,.42,1.41,2.25,2.25,0,0,1-.39,1.2l-2.89,4.9a2.6,2.6,0,0,1-2.21,1.59,2.26,2.26,0,0,1-.71-.15,4,4,0,0,1-.94-.5,14.81,14.81,0,0,0-3.06-1.54,10,10,0,0,0-3.49-.6,8.57,8.57,0,0,0-3.76.83,8.86,8.86,0,0,0-2.93,2.25,10.64,10.64,0,0,0-1.9,3.31,12,12,0,0,0,0,8,9.89,9.89,0,0,0,1.9,3.23,8.87,8.87,0,0,0,6.7,3,9.26,9.26,0,0,0,3.47-.65A15.67,15.67,0,0,0,591.45,43.94Z" style="fill: #f59636"/>
            <path d="M607.63,9a1.77,1.77,0,0,1,.66-1.51,7.54,7.54,0,0,1,1.9-1L617.55,4a1.58,1.58,0,0,1,.31,0h.28a1.7,1.7,0,0,1,1.61.7,3.63,3.63,0,0,1,.41,1.83l0,10.21h5.42a2.35,2.35,0,0,1,1.69.62,2.43,2.43,0,0,1,.65,1.85v6.26a2.68,2.68,0,0,1-.65,2,2.31,2.31,0,0,1-1.69.63h-5.42l0,26.07a2.36,2.36,0,0,1-.71,1.86,2.88,2.88,0,0,1-2,.63h-7.33a2.21,2.21,0,0,1-2.5-2.5l0-26.07h-2.37q-2.5,0-2.5-2.63V19.17a2.19,2.19,0,0,1,2.5-2.46h2.37Z" style="fill: #f59636"/>
          </g>
          <g>
            <path d="M499.19,115.16a41.5,41.5,0,0,1-1.52,11.34,40.48,40.48,0,0,1-4.34,10,41.71,41.71,0,0,1-15.4,14.84,43.63,43.63,0,0,1-10.28,4.08,45.21,45.21,0,0,1-11.43,1.44H428.48a3.56,3.56,0,0,1-1.8-.45,2,2,0,0,1-.79-1.91V75.86a2.78,2.78,0,0,1,.65-1.91,2.46,2.46,0,0,1,1.94-.73h27.76a44.08,44.08,0,0,1,11.4,1.46,43.23,43.23,0,0,1,10.25,4.17,43.89,43.89,0,0,1,8.7,6.48,40,40,0,0,1,6.73,8.45,42.36,42.36,0,0,1,4.33,10.08A40.89,40.89,0,0,1,499.19,115.16ZM447.68,93.42v43.3h4.73q1.29,0,2.53-.08l2.48-.2a22.65,22.65,0,0,0,7.88-2.06,21.82,21.82,0,0,0,6.39-4.5,20.25,20.25,0,0,0,4.28-6.56,21.44,21.44,0,0,0,1.55-8.22,21.09,21.09,0,0,0-1.77-8.7A21.39,21.39,0,0,0,463.81,95a23.55,23.55,0,0,0-8.7-1.6Z" style="fill: #297afb"/>
            <path d="M514,75.86a2.76,2.76,0,0,1,.62-1.89,2.35,2.35,0,0,1,1.86-.7h36.37a27.35,27.35,0,0,1,10.87,2.17,28.36,28.36,0,0,1,8.84,5.88,27.46,27.46,0,0,1,5.94,8.7,26.32,26.32,0,0,1,2.17,10.61,25.2,25.2,0,0,1-1,7.29,27.25,27.25,0,0,1-2.9,6.48,27.52,27.52,0,0,1-4.42,5.46,28.88,28.88,0,0,1-5.6,4.19l14.47,27.25q.39.79,1,1.86a3.86,3.86,0,0,1,.62,1.86,1.67,1.67,0,0,1-.59,1.38,2.48,2.48,0,0,1-1.6.48H561.29a2.8,2.8,0,0,1-1.72-.56,2.55,2.55,0,0,1-1-1.52l-13.68-25.73h-9.12v25.39q0,2.42-2.59,2.42H516.48a2.64,2.64,0,0,1-1.8-.59,2.31,2.31,0,0,1-.68-1.83Zm44.08,25a9.77,9.77,0,0,0-.62-3.38,11,11,0,0,0-1.75-3.1A10.26,10.26,0,0,0,553,92a9.26,9.26,0,0,0-3.49-1.24l-3-.2q-1.38-.08-3-.08h-7.77v20.66h10.36q1,0,1.8-.06t1.75-.17a8.89,8.89,0,0,0,3.55-1.15,9.27,9.27,0,0,0,2.65-2.31,10.22,10.22,0,0,0,1.63-3.1A11.23,11.23,0,0,0,558.08,100.86Z" style="fill: #297afb"/>
            <path d="M617,75.46a1.67,1.67,0,0,1,.37-.73,4.19,4.19,0,0,1,1.72-1.27,2.63,2.63,0,0,1,1-.2h14.41a2.4,2.4,0,0,1,1.63.59,7.23,7.23,0,0,1,1,1l1.41,3.21,29.56,76.23a1.66,1.66,0,0,1-.17,1.83,2.74,2.74,0,0,1-2.14.7H649.63a3.53,3.53,0,0,1-2-.48,3.09,3.09,0,0,1-1.1-1.6q-1.13-2.87-2.2-5.71t-2.14-5.71H612.3q-1.07,2.87-2.17,5.71T608,154.79a2.82,2.82,0,0,1-2.87,2.08H588.49a2.74,2.74,0,0,1-1.77-.56,1.33,1.33,0,0,1-.25-1.69Zm10.25,24.1q-1.07,2.87-2.17,6.19t-2.17,6.7q-1.07,3.38-2.17,6.67t-2.17,6.17h17.29Z" style="fill: #297afb"/>
            <path d="M725.3,96.86a24.39,24.39,0,0,0-6.14-3.15,21.29,21.29,0,0,0-7-1.13A20.32,20.32,0,0,0,697,99.17a22.3,22.3,0,0,0-4.36,7.12,24.7,24.7,0,0,0,0,17.37,22,22,0,0,0,4.36,7.07,20.3,20.3,0,0,0,6.67,4.76,20.63,20.63,0,0,0,8.56,1.75,27.14,27.14,0,0,0,3.91-.28q1.94-.28,4.14-.73V121.46a2.59,2.59,0,0,1,.62-1.77,2.35,2.35,0,0,1,1.86-.7H738a3.17,3.17,0,0,1,1.8.68,2.1,2.1,0,0,1,1,1.8v27.25a2.83,2.83,0,0,1-1.63,2.48,30.82,30.82,0,0,1-5.86,3.1,48,48,0,0,1-6.7,2.14,60,60,0,0,1-7.07,1.27,59.34,59.34,0,0,1-7,.42,42.58,42.58,0,0,1-21.73-5.86,43.6,43.6,0,0,1-15.43-15.4,42,42,0,0,1-4.33-10.25,43.19,43.19,0,0,1,4.33-33.22,43.61,43.61,0,0,1,6.73-8.75,42,42,0,0,1,8.7-6.73,44.13,44.13,0,0,1,10.28-4.33,43.61,43.61,0,0,1,24.21.34,43.8,43.8,0,0,1,11.29,5.43,3.85,3.85,0,0,1,1.46,1.49,2,2,0,0,1-.23,2.11l-9.12,13.17a4,4,0,0,1-1.46,1.21A2.22,2.22,0,0,1,725.3,96.86Z" style="fill: #297afb"/>
            <path d="M752.55,75.74a2.28,2.28,0,0,1,.76-1.8,2.74,2.74,0,0,1,1.89-.67h60.58a2.85,2.85,0,0,1,1.8.62,2.52,2.52,0,0,1,.9,1.85v14a3.16,3.16,0,0,1-.7,1.94,2.36,2.36,0,0,1-2,.93H796.35v61.65a2.68,2.68,0,0,1-.73,1.83,2.44,2.44,0,0,1-1.91.82H777.2a2.64,2.64,0,0,1-1.8-.76,2.44,2.44,0,0,1-.84-1.89V92.58H755.19a2.61,2.61,0,0,1-1.89-.73,2.82,2.82,0,0,1-.76-2.13Z" style="fill: #297afb"/>
            <path d="M840.77,75.46a1.66,1.66,0,0,1,.37-.73,4,4,0,0,1,.76-.73,4,4,0,0,1,1-.53,2.63,2.63,0,0,1,1-.2h14.41a2.4,2.4,0,0,1,1.63.59,7.28,7.28,0,0,1,1,1l1.41,3.21,29.56,76.23a1.65,1.65,0,0,1-.17,1.83,2.74,2.74,0,0,1-2.14.7H873.37a3.53,3.53,0,0,1-2-.48,3.09,3.09,0,0,1-1.1-1.6q-1.13-2.87-2.2-5.71t-2.14-5.71H836q-1.07,2.87-2.17,5.71t-2.17,5.71a2.82,2.82,0,0,1-2.87,2.08H812.23a2.74,2.74,0,0,1-1.77-.56,1.33,1.33,0,0,1-.25-1.69ZM851,99.56q-1.07,2.87-2.17,6.19t-2.17,6.7q-1.07,3.38-2.17,6.67t-2.17,6.17h17.29Z" style="fill: #297afb"/>
            <path d="M910.19,129.85q1,.79,2.45,2.11a32.67,32.67,0,0,0,3.41,2.62,28.62,28.62,0,0,0,5.69,3,16.51,16.51,0,0,0,5.91,1.07,15.39,15.39,0,0,0,4.81-.65,8.12,8.12,0,0,0,3.07-1.72,6.08,6.08,0,0,0,1.6-2.47,9.2,9.2,0,0,0,.48-3,4.39,4.39,0,0,0-1.32-3.12,13.72,13.72,0,0,0-3.24-2.45,27.46,27.46,0,0,0-4-1.83q-2.08-.76-3.6-1.27a82.27,82.27,0,0,1-11.82-5.09,36.47,36.47,0,0,1-8.45-6.08,21.86,21.86,0,0,1-6.76-16.34,21.17,21.17,0,0,1,2.11-9.51,20.87,20.87,0,0,1,6-7.31,28.68,28.68,0,0,1,9.43-4.7,42.73,42.73,0,0,1,12.33-1.66,41.06,41.06,0,0,1,9.82,1.15,37.4,37.4,0,0,1,9.26,3.69q1.91,1.13,3.63,2.34a38.1,38.1,0,0,1,3,2.34,14.32,14.32,0,0,1,2.06,2.14,3.11,3.11,0,0,1,.76,1.75,2.61,2.61,0,0,1-.37,1.35,8.55,8.55,0,0,1-1.1,1.41l-8.61,9.18a2.76,2.76,0,0,1-1.91,1,2.45,2.45,0,0,1-1.44-.45A18.09,18.09,0,0,1,942,96.18l-.51-.45q-1.13-1-2.51-2a22.3,22.3,0,0,0-3-1.83,20,20,0,0,0-3.32-1.35,12.05,12.05,0,0,0-3.55-.53,18.76,18.76,0,0,0-3.49.31,9.72,9.72,0,0,0-2.87,1,5.45,5.45,0,0,0-2,1.77,5.18,5.18,0,0,0,.06,5.4,7.79,7.79,0,0,0,2.37,2.14,21.82,21.82,0,0,0,3.91,1.86q2.33.87,5.43,1.89,6,2,11,4.14a37.1,37.1,0,0,1,8.7,5.12,21.19,21.19,0,0,1,5.71,7.07,22.11,22.11,0,0,1,2.05,10,24.65,24.65,0,0,1-2.53,11.23,25.68,25.68,0,0,1-7,8.59A32.47,32.47,0,0,1,940.2,156a41.25,41.25,0,0,1-12.84,1.94,36.4,36.4,0,0,1-12.72-2.31A48.86,48.86,0,0,1,903,149.42a30,30,0,0,1-3.8-3.22q-1.55-1.58-2.45-2.54l-.17-.17a.31.31,0,0,0-.11-.14.38.38,0,0,1-.11-.09.32.32,0,0,0-.11-.14.42.42,0,0,1-.11-.08,3.94,3.94,0,0,1-1.29-2.26,3.2,3.2,0,0,1,1.29-2.15l9.74-9.29a3.66,3.66,0,0,1,1.91-.84,2.09,2.09,0,0,1,1.07.34A10.47,10.47,0,0,1,910.19,129.85Z" style="fill: #297afb"/>
            <path d="M969,75.74a2.28,2.28,0,0,1,.76-1.8,2.74,2.74,0,0,1,1.89-.67h60.58a2.85,2.85,0,0,1,1.8.62,2.52,2.52,0,0,1,.9,1.85v14a3.16,3.16,0,0,1-.7,1.94,2.36,2.36,0,0,1-2,.93h-19.42v61.65a2.68,2.68,0,0,1-.73,1.83,2.44,2.44,0,0,1-1.91.82H993.62a2.64,2.64,0,0,1-1.8-.76,2.44,2.44,0,0,1-.84-1.89V92.58H971.62a2.61,2.61,0,0,1-1.89-.73,2.82,2.82,0,0,1-.76-2.13Z" style="fill: #297afb"/>
            <path d="M1048.75,75.75a2.62,2.62,0,0,1,.62-1.75,2.3,2.3,0,0,1,1.86-.73h16.55a3.17,3.17,0,0,1,1.8.68,2.1,2.1,0,0,1,1,1.8V154.4q0,2.48-2.76,2.48h-16.55a2.19,2.19,0,0,1-2.48-2.48Z" style="fill: #297afb"/>
            <path d="M1152.46,79.35a3.52,3.52,0,0,1,1.41,1.46,2.33,2.33,0,0,1-.17,2.14l-9.52,13.51a2.21,2.21,0,0,1-1.32,1.1,2.47,2.47,0,0,1-1.72-.48,21.5,21.5,0,0,0-6.08-3.21,21.8,21.8,0,0,0-7-1.13,20.39,20.39,0,0,0-15.2,6.53,22.1,22.1,0,0,0-4.39,7.09,24.54,24.54,0,0,0,0,17.31,21.83,21.83,0,0,0,4.39,7,20.5,20.5,0,0,0,15.2,6.5,21.89,21.89,0,0,0,13.23-4.39,2.61,2.61,0,0,1,1.69-.51,2.31,2.31,0,0,1,1.35,1l9.63,13.85a2.21,2.21,0,0,1,.17,2.08,3.62,3.62,0,0,1-1.41,1.41,44.69,44.69,0,0,1-11.4,5.49,42.2,42.2,0,0,1-12.87,1.94,42.58,42.58,0,0,1-21.73-5.86,43.62,43.62,0,0,1-15.43-15.4,42,42,0,0,1-4.33-10.25,43.19,43.19,0,0,1,4.33-33.22,43.65,43.65,0,0,1,6.73-8.75,42,42,0,0,1,8.7-6.73A44.16,44.16,0,0,1,1117,73.58a43.62,43.62,0,0,1,24.21.34A43.81,43.81,0,0,1,1152.46,79.35Z" style="fill: #297afb"/>
          </g>
        </g>
        <g id="_0xHoil" data-name="0xHoil">
          <g>
            <path d="M393.36,182c1.44,0,2.89,0,4.33,0h13.48v8.73h9v8.91h8.77v62.19h-8.64v26.75h-8.92v27.22c-29.77,0-59.41.23-89.17.1V289.27h-8.93V271.16h-9.09v-18h-8.72v-17.6h-9.05v-9h-8.85V200h26.59v8.67l0,0H286.67v17.74h8.85v9.08h8.78v17.67h9v17.95h8.94V289h8.94v18.3h71.21V288.58h8.94V261.84H420V199.69H411v-8.75h-8.61V217.4h-9c0-.34,0-.63,0-.92q0-11.67,0-23.34c0-1.6,0-3.2,0-4.8,0-2.11,0-4.22,0-6.33Z"/>
            <path d="M304.15,208.66h9.08V128.3h9v-8.45h17.49V128H349v36.13h17.47v9.09h26.93c0,3,0,5.89,0,8.79l0,0H375.3v26.66h-8.84V173.44H349v35.05h-9.41V128.31h-17.2v98.25h-9.18v-9h-9v-9Z"/>
            <path d="M304.17,208.64v9h9v9h9.18V128.31h17.2v80.18H349V173.44h17.48v35.23h8.84V182h18.09c0,2.11,0,4.22,0,6.33,0,1.6,0,3.2,0,4.8q0,11.67,0,23.34c0,.29,0,.57,0,.92h9V190.94H411v8.75H420v62.14h-8.72v26.75h-8.94v18.73H331.17V289h-8.94V271.08h-8.94V253.13h-9V235.46h-8.78v-9.08h-8.85V208.64Z" style="fill: #fff"/>
          </g>
        </g>
      </g>
    </g>
  </g>
</svg>
